<?xml version="1.0" encoding="UTF-8"?>
<!DOCTYPE svg PUBLIC "-//W3C//DTD SVG 1.1//EN" "http://www.w3.org/Graphics/SVG/1.1/DTD/svg11.dtd">
<svg xmlns="http://www.w3.org/2000/svg" version="1.1" width="96px" height="96px" style="shape-rendering:geometricPrecision; text-rendering:geometricPrecision; image-rendering:optimizeQuality; fill-rule:evenodd; clip-rule:evenodd" xmlns:xlink="http://www.w3.org/1999/xlink">
<g><path style="opacity:1" fill="#fcfcfc" d="M -0.5,-0.5 C 31.5,-0.5 63.5,-0.5 95.5,-0.5C 95.5,31.5 95.5,63.5 95.5,95.5C 63.5,95.5 31.5,95.5 -0.5,95.5C -0.5,63.5 -0.5,31.5 -0.5,-0.5 Z"/></g>
<g><path style="opacity:1" fill="#4e649d" d="M 32.5,16.5 C 32.5,24.5 32.5,32.5 32.5,40.5C 32.5,53.1667 32.5,65.8333 32.5,78.5C 27.1667,78.5 21.8333,78.5 16.5,78.5C 16.5,57.8333 16.5,37.1667 16.5,16.5C 21.8333,16.5 27.1667,16.5 32.5,16.5 Z"/></g>
<g><path style="opacity:1" fill="#d49f5a" d="M 62.5,16.5 C 67.8333,16.5 73.1667,16.5 78.5,16.5C 78.5,37.1667 78.5,57.8333 78.5,78.5C 73.1667,78.5 67.8333,78.5 62.5,78.5C 62.5,66.1667 62.5,53.8333 62.5,41.5C 62.5,33.1667 62.5,24.8333 62.5,16.5 Z"/></g>
<g><path style="opacity:1" fill="#3b4e6e" d="M 32.5,16.5 C 37.5,26.5 42.5,36.5 47.5,46.5C 47.5,47.1667 47.5,47.8333 47.5,48.5C 45.5978,52.6553 43.9311,56.9886 42.5,61.5C 38.8938,54.6214 35.5605,47.6214 32.5,40.5C 32.5,32.5 32.5,24.5 32.5,16.5 Z"/></g>
<g><path style="opacity:1" fill="#ba8748" d="M 62.5,16.5 C 62.5,24.8333 62.5,33.1667 62.5,41.5C 59.1667,48.1667 55.8333,54.8333 52.5,61.5C 51.0689,56.9886 49.4022,52.6553 47.5,48.5C 47.5,47.8333 47.5,47.1667 47.5,46.5C 52.5,36.5 57.5,26.5 62.5,16.5 Z"/></g>
<g><path style="opacity:1" fill="#d3a05c" d="M 47.5,48.5 C 49.4022,52.6553 51.0689,56.9886 52.5,61.5C 49.1667,61.5 45.8333,61.5 42.5,61.5C 43.9311,56.9886 45.5978,52.6553 47.5,48.5 Z"/></g>
</svg>
